<svg width="400" height="200" viewbox = "0 0 400 200"  xmlns="http://www.w3.org/2000/svg">
	<path d = "M0 0 L1 1.1187470739025258 L2 2.469823725978358 L3 4.045152371502397 L4 5.836238234397683 L5 7.834199470459026 L6 10.029797690261006 L7 12.4134687952819 L8 14.97535404168137 L9 17.705331247277513 L10 20.59304605857325 L11 23.627943196173675 L12 26.799297598608447 L13 30.096245386418943 L14 33.50781457037941 L15 37.02295542988742 L16 40.630570489872554 L17 44.319544027024214 L18 48.0787710387208 L19 51.89718561074475 L20 55.763788622680785 L21 59.66767473280887 L22 63.59805858731033 L23 67.54430020169427 L24 71.49592946551348 L25 75.44266972466394 L26 79.37446039884155 L27 83.28147859505245 L28 87.1541596814316 L29 90.98321678900773 L30 94.75965921245285 L31 98.47480968426136 L32 102.12032050020926 L33 105.68818847733894 L34 109.17076872909108 L35 112.56078724555361 L36 115.85135227011155 L37 119.03596446705133 L38 122.10852587789276 L39 125.06334766738345 L40 127.89515666318661 L41 130.59910069631815 L42 133.1707527523356 L43 135.6061139461439 L44 137.9016153360563 L45 140.05411859542534 L46 142.06091556273776 L47 143.91972669353868 L48 145.62869843991444 L49 147.1863995855143 L50 148.59181656622462 L51 149.8443478086242 L52 150.94379712024033 L53 151.89036616739162 L54 152.68464607804518 L55 153.32760820862327 L56 153.82059411507834 L57 154.1653047698029 L58 154.36378906705957 L59 154.4184316606017 L60 154.33194017801003 L61 154.10733185699206 L62 153.74791964948298 L63 153.25729783984988 L64 152.6393272238327 L65 151.8981198950646 L66 151.0380236860953 L67 150.0636063108016 L68 148.97963925490944 L69 147.79108146107487 L70 146.5030628545797 L71 145.12086775519742 L72 143.64991822017376 L73 142.09575736255536 L74 140.46403268828664 L75 138.76047949458706 L76 136.99090437112187 L77 135.16116884439174 L78 133.27717320459965 L79 131.34484055300382 L80 129.37010110644766 L81 127.35887679436802 L82 125.31706618213158 L83 123.2505297530395 L84 121.16507557977638 L85 119.0664454144682 L86 116.96030122485922 L87 114.8522122024247 L88 112.74764226651057 L89 110.65193808683777 L90 108.57031764493198 L91 106.50785935324619 L92 104.46949174893632 L93 102.45998377743466 L94 100.48393567914941 L95 98.54577049080113 L96 96.64972617109818 L97 94.79984835865375 L98 92.99998376826349 L99 91.25377422989907 L100 89.56465137303184 L101 87.93583195718942 L102 86.37031384796578 L103 84.87087263606017 L104 83.44005889531388 L105 82.08019607414785 L106 80.79337901328611 L107 79.58147308117853 L108 78.44611391711629 L109 77.38870777066876 L110 76.41043242475949 L111 75.51223868844932 L112 74.69485244430386 L113 73.9587772340943 L114 73.3042973655177 L115 72.7314815216238 L116 72.24018685370564 L117 71.83006353754632 L118 71.50055977212159 L119 71.25092719913188 L120 71.080226721083 L121 70.98733469505049 L122 70.9709494787481 L123 71.02959830507703 L124 71.16164446095947 L125 71.36529474595547 L126 71.63860718592744 L127 71.97949897685021 L128 72.38575463376472 L129 72.85503431984148 L130 73.38488233055125 L131 73.97273570803664 L132 74.61593296093656 L133 75.31172286513385 L134 76.05727332117395 L135 76.84968024443688 L136 77.68597646453422 L137 78.56314061084447 L138 79.47810596159377 L139 80.42776923442935 L140 81.40899929702083 L141 82.41864577685523 L142 83.45354755006335 L143 84.510541089826 L144 85.58646865565504 L145 86.6781863056239 L146 87.78257171443322 L147 88.89653178103549 L148 90.01701001040671 L149 91.14099365493925 L150 92.26552060183688 L151 93.38768599381552 L152 94.50464857135184 L153 95.61363672567073 L154 96.71195425262133 L155 97.79698579855643 L156 98.86620199029798 L157 99.9171642422419 L158 100.9475292346237 L159 101.95505305793078 L160 102.93759501940637 L161 103.89312110853926 L162 104.81970711937329 L163 105.71554142839659 L164 106.57892742768058 L165 107.40828561383435 L166 108.20215533421256 L167 108.95919619267023 L168 109.67818911798805 L169 110.3580370988973 L170 110.99776559041555 L171 111.59652259695496 L172 112.1535784383901 L173 112.6683252059653 L174 113.14027591558263 L175 113.56906336664296 L176 113.95443871520652 L177 114.29626977080251 L178 114.59453902674305 L179 114.84934143428748 L180 115.06088193145801 L181 115.2294727377242 L182 115.3555304261554 L183 115.4395727849825 L184 115.48221548081587 L185 115.48416853603499 L186 115.4462326330949 L187 115.36929525868823 L188 115.25432670085732 L189 115.10237591226986 L190 114.91456625295501 L191 114.69209112584282 L192 114.43620951846253 L193 114.14824146413147 L194 113.82956343591037 L195 113.48160368650996 L196 113.10583754721301 L197 112.70378269872178 L198 112.27699442665772 L199 111.82706087422824 L200 111.35559830433394 L201 110.8642463831234 L202 110.35466349670872 L203 109.82852211243842 L204 109.28750419578351 L205 108.73329669353097 L206 108.16758709359581 L207 107.59205907136221 L208 107.0083882320448 L209 106.41823795812637 L210 105.82325537047846 L211 105.2250674113082 L212 104.62527705660011 L213 104.02545966523634 L214 103.42715947148517 L215 102.83188622704539 L216 102.24111199832768 L217 101.65626812414149 L218 101.07874233844069 L219 100.50987606226514 L220 99.95096186849662 L221 99.40324112253265 L222 98.86790180146623 L223 98.34607649384955 L224 97.83884058161419 L225 97.347210605219 L226 96.872142812606 L227 96.41453189205822 L228 95.97520988857964 L229 95.55494530295198 L230 95.1544423721695 L231 94.77434052951267 L232 94.41521404209261 L233 94.0775718232854 L234 93.76185741707576 L235 93.46844915094638 L236 93.19766045358196 L237 92.94974033330683 L238 92.72487401284202 L239 92.52318371565293 L240 92.34472959886199 L241 92.18951082742345 L242 92.05746678399821 L243 91.94847840872822 L244 91.86236966289022 L245 91.79890911020857 L246 91.7578116094282 L247 91.7387401115882 L248 91.7413075552974 L249 91.7650788531938 L250 91.80957296266976 L251 91.87426503386521 L252 91.95858862787072 L253 92.0619379980414 L254 92.18367042730073 L255 92.32310861431034 L256 92.47954310139704 L257 92.65223473716158 L258 92.84041716674488 L259 93.04329934279477 L260 93.26006805026134 L261 93.4898904382489 L262 93.73191655226934 L263 93.98528186037123 L264 94.24910976676526 L265 94.52251410672403 L266 94.80460161670644 L267 95.09447437383979 L268 95.39123219908842 L269 95.69397501864267 L270 96.00180517827867 L271 96.3138297056634 L272 96.62916251581389 L273 96.94692655515998 L274 97.26625587990833 L275 97.58629766465998 L276 97.90621413749261 L277 98.2251844379841 L278 98.54240639492082 L279 98.85709822070623 L280 99.16850011975835 L281 99.4758758084598 L282 99.77851394450013 L283 100.07572946372595 L284 100.3668648228898 L285 100.65129114696266 L286 100.92840927994737 L287 101.19765073839899 L288 101.45847856712508 L289 101.71038809680019 L290 101.95290760348739 L291 102.1855988703115 L292 102.40805765177626 L293 102.61991404145817 L294 102.82083274404394 L295 103.01051325290548 L296 103.18868993462618 L297 103.35513202210309 L298 103.50964351805332 L299 103.6520630109469 L300 103.7822634055742 L301 103.90015157063128 L302 104.00566790587362 L303 104.0987858315448 L304 104.17951120293293 L305 104.24788165304464 L306 104.30396586651116 L307 104.34786278795713 L308 104.37970076816733 L309 104.39963665148014 L310 104.40785480792054 L311 104.40456611365751 L312 104.3900068834332 L313 104.36443775866238 L314 104.32814255494132 L315 104.2814270727364 L316 104.2246178750418 L317 104.15806103580657 L318 104.08212086293082 L319 103.99717859962114 L320 103.9036311078758 L321 103.80188953784219 L322 103.69237798675032 L323 103.5755321510805 L324 103.45179797556796 L325 103.32163030258377 L326 103.18549152536085 L327 103.0438502484548 L328 102.89717995874386 L329 102.74595771017961 L330 102.5906628254011 L331 102.43177561721997 L332 102.26977613287362 L333 102.10514292382717 L334 101.93835184378473 L335 101.7698748774444 L336 101.60017900240301 L337 101.42972508648289 L338 101.25896682261728 L339 101.08834970329177 L340 100.91831003639804 L341 100.74927400421258 L342 100.58165676706825 L343 100.41586161314062 L344 100.25227915562407 L345 100.09128657842525 L346 99.93324693135486 L347 99.77850847565098 L348 99.62740408052228 L349 99.48025067125344 L350 99.3373487292724 L351 99.19898184443716 L352 99.0654163196601 L353 98.93690082785149 L354 98.81366612102848 L355 98.69592479130584 L356 98.58387108335593 L357 98.4776807578014 L358 98.37751100488376 L359 98.28350040763443 L360 98.19576895366289 L361 98.11441809456878 L362 98.03953085188213 L363 97.97117196833784 L364 97.90938810319712 L365 97.85420807024131 L366 97.80564311698055 L367 97.76368724354242 L368 97.72831755963443 L369 97.69949467790744 L370 97.67716314198722 L371 97.6612518873858 L372 97.6516747334554 L373 97.64833090450428 L374 97.65110557815576 L375 97.65987045899982 L376 97.67448437555993 L377 97.69479389857733 L378 97.72063397859912 L379 97.75182860084728 L380 97.78819145534086 L381 97.82952662024483 L382 97.87562925642477 L383 97.92628631119837 L384 97.98127722929003 L385 98.04037466901653 L386 98.10334522175675 L387 98.16995013278908 L388 98.23994602161387 L389 98.3130855999177 L390 98.38911838537807 L391 98.46779140955411 L392 98.54884991815827 L393 98.63203806205789 L394 98.71709957741169 L395 98.80377845340595 L396 98.89181958611746 L397 98.98096941709512 L398 99.07097655531926 L399 99.16159238126738 " stroke = "black" stroke-width = "2" fill = "none" /></svg>