<svg width="800" height="300" viewbox = "0 0 800 300"  xmlns="http://www.w3.org/2000/svg">

<!--
<json>
{
"shapes":[
    "0220:0336,0336,0335,0201,0334,0331,0333,0333,0337,0200,0336,0332,0336,0330,0332,0337,",
    "0221:0365,0333,0336,0330,0333,0337,0335,0201,0334,0337,0337,",
    "0222:0220,0130,0221,",
    "0223:0220,0131,0221,",
    "0224:0220,0132,0221,",
    "0225:0220,0110,0221,",
    "0226:0220,0123,0221,",
    "0227:0220,0124,0221,0304,",
    "0230:0335,0342,0333,0342,0334,0336,0333,0336,0336,0341,0335,0335,0342,0335,0335,0337,0337,0337,0201,0336,0336,0336,0347,0337,0337,0333,0337,",
    "0231:0335,0342,0333,0342,0336,0330,0334,0337,0342,0336,0336,0350,0335,0342,0335,0335,0342,0335,0335,0342,0335,0335,0342,0335,0337,0337,0330,0336,0336,0335,0342,0335,0335,0342,0335,0335,0342,0335,0335,0342,0335,0304,0337,0333,0337,",
    "0232:0335,0342,0336,0330,0334,0336,0336,0347,0337,0337,0337,0331,0336,0332,0337,0224,0336,0336,0330,0332,0332,0337,0336,0201,0201,0201,0333,0333,0337,0337,",
    "0233:0335,0342,0336,0330,0334,0336,0336,0347,0337,0337,0337,0331,0336,0332,0337,0226,0336,0336,0330,0332,0332,0337,0336,0201,0201,0201,0333,0333,0337,0337,",
    "0234:0335,0342,0333,0342,0333,0342,0334,0336,0333,0336,0336,0341,0331,0201,0337,0337,0337,0201,0342,0336,0336,0336,0347,0337,0337,0337,0330,0336,0336,0336,0347,0337,0337,0333,0337,",
    "0235:0335,0342,0333,0342,0333,0342,0334,0336,0333,0336,0350,0335,0342,0335,0335,0342,0335,0335,0342,0335,0335,0342,0335,0337,0337,0201,0336,0336,0335,0342,0335,0335,0342,0335,0335,0342,0335,0335,0342,0335,0337,0337,0304,0201,0336,0336,0336,0347,0337,0337,0333,0337,",
    "0236:0335,0201,0334,0336,0331,0337,0201,0335,0201,0336,0201,0335,0201,0201,0335,0201,0201,0201,0335,0333,0336,0333,0337,0337,0210,0210,0306,0343,0211,0211,0350,0335,0342,0330,0335,0335,0335,0335,0335,0335,0336,0336,0336,0335,0342,0334,0334,0342,0335,0337,0337,0337,0330,0334,0304,0335,0335,0336,0330,0332,0336,0332,0337,0332,0332,0337,",
    "0237:0335,0201,0334,",
    "0240:0335,0336,0336,0336,0336,0336,0332,0337,0337,0337,0337,0337,0342,0336,0336,0336,0336,0333,0337,0337,0337,0337,0342,0336,0336,0336,0336,0336,0332,0337,0337,0337,0337,0337,0330,0334,",
    "0241:0335,0342,0336,0330,0334,0306,0350,0335,0336,0336,0342,0335,0335,0335,0335,0335,0335,0342,0335,0335,0335,0335,0335,0304,0330,0332,0337,0156,0365,0333,0333,0336,0331,0333,0337,0337,0337,",
    "0242:0336,0336,0336,0336,0332,0337,0330,0333,0337,0337,061,0365,0336,0336,0331,0337,0337,0362,0203,0336,0203,0334,0336,0336,0203,0334,0337,0337,0203,0203,0203,0334,0336,0336,0203,0363,0334,0337,0337,0333,0333,0312,0337,0313,0336,0306,0350,0335,0362,0203,0203,0334,0334,0203,0203,0334,0334,0336,0336,0203,0334,0334,0334,0334,0337,0337,0337,0203,0335,0335,0203,0334,0334,0334,0334,0336,0336,0336,0203,0363,0304,0334,0337,0337,0337,0312,0336,0313,0332,0332,0336,0336,0332,0337,0337,0337,0337,",
    "0243:0336,0336,0336,0336,0332,0337,0330,0333,0337,0337,060,0365,0336,0336,0331,0337,0337,0362,0203,0336,0203,0334,0336,0336,0203,0334,0337,0337,0203,0203,0203,0334,0336,0336,0203,0363,0334,0337,0337,0333,0333,0312,0337,0313,0336,0306,0350,0335,0362,0203,0203,0334,0334,0203,0203,0334,0334,0336,0336,0203,0334,0334,0334,0334,0337,0337,0337,0203,0335,0335,0203,0334,0334,0334,0334,0336,0336,0336,0203,0363,0304,0334,0337,0337,0337,0312,0336,0313,0332,0332,0336,0336,0332,0337,0337,0337,0337,",
    "0250:0336,0336,0330,0333,0337,",
    "0251:0365,0333,0336,0331,0333,0337,0337,",
    "0252:0332,0332,0332,0332,0332,0336,0330,0330,0330,0250,0161,0251,0250,0167,0251,0250,0145,0251,0250,0162,0251,0250,0164,0251,0250,0171,0251,0250,0165,0251,0250,0151,0251,0250,0157,0251,0250,0160,0251,0250,0133,0251,0250,0135,0251,0250,0134,0251,0331,0331,0332,0332,0332,0332,0332,0332,0332,0332,0332,0332,0332,0332,0336,0332,0337,0250,0141,0251,0250,0163,0251,0250,0144,0251,0250,0146,0251,0250,0147,0251,",
    "0260:0252,0330,0332,0332,0332,0332,0332,0332,0330,0336,0330,0336,0330,0333,0333,0337,0337,01222,01223,01224,01225,01226,01227,01230,01231,01232,01233,01234,01235,01236,0331,0332,0332,0332,0332,0332,0332,0332,0332,0332,0332,0331,0332,0332,0336,0332,0337,01243,01242,01237,01240,01241,",
    "01220:0333,0200,0336,0336,0330,0332,0337,0200,0330,0336,0330,0332,0332,0334,0366,0335,0335,0333,0333,0331,0367,0366,0330,0335,0335,0332,0332,0367,0335,0333,0333,0333,0337,0337,",
    "01221:0333,0200,0336,0336,0330,0332,0337,0200,0336,0331,0335,0366,0330,0332,0332,0335,0335,0367,0366,0333,0333,0335,0335,0331,0367,0334,0333,0331,0331,0331,0331,0337,0337,",
    "01222:0333,0200,0336,0330,0332,0332,0337,0222,0336,0331,0337,",
    "01223:0333,0200,0336,0330,0332,0332,0337,0223,0336,0331,0337,",
    "01224:0333,0200,0336,0330,0332,0332,0337,0224,0336,0331,0337,",
    "01225:0333,0200,0336,0330,0332,0332,0337,0225,0336,0331,0337,",
    "01226:0333,0200,0336,0330,0332,0332,0337,0226,0336,0331,0337,",
    "01227:0333,0200,0336,0330,0332,0332,0337,0227,0336,0331,0337,",
    "01230:0333,0200,0330,0332,0336,0333,0331,0336,0330,0332,0337,0230,0336,0333,0331,0330,0330,0337,0337,0331,",
    "01231:0333,0200,0330,0332,0336,0336,0333,0331,0337,0231,0336,0333,0330,0337,0337,0331,",
    "01232:0333,0200,0330,0332,0336,0336,0333,0331,0337,0232,0336,0333,0330,0337,0337,0331,",
    "01233:0333,0200,0330,0332,0336,0336,0333,0331,0337,0233,0336,0330,0333,0337,0337,0331,",
    "01234:0333,0200,0336,0330,0330,0332,0332,0336,0333,0337,0234,0336,0333,0337,0337,0331,",
    "01235:0333,0200,0336,0330,0330,0332,0336,0332,0337,0235,0336,0333,0337,0337,0331,",
    "01236:0333,0200,0336,0330,0332,0332,0332,0336,0333,0337,0336,0333,0211,0211,0236,0210,0210,0337,0331,0337,0333,",
    "01237:0333,0200,0336,0330,0332,0332,0337,0237,0336,0331,0337,",
    "01240:0333,0200,0336,0330,0332,0332,0337,0240,0336,0331,0337,",
    "01241:0333,0200,0336,0330,0332,0332,0337,0241,0336,0331,0337,",
    "01242:0333,0200,0332,0336,0336,0336,0330,0333,0337,0337,0337,0242,0333,0336,0336,0336,0332,0331,0337,0337,0337,",
    "01243:0333,0200,0332,0336,0336,0336,0330,0333,0337,0337,0337,0243,0333,0336,0336,0336,0332,0331,0337,0337,0337,"
],
"glyph":"0252,0330,0332,0332,0332,0332,0332,0332,0330,0336,0330,0336,0330,0333,0333,0337,0337,01222,01223,01224,01225,01226,01227,01230,01231,01232,01233,01234,01235,01236,0331,0332,0332,0332,0332,0332,0332,0332,0332,0332,0332,0331,0332,0332,0336,0332,0337,01243,01242,01237,01240,01241,",
"w":800,
"h":300,
"x0":600,
"y0":300,
"x0rel":-0.83,
"y0rel":-0.36,
"unit":100,
"imgurl":"",
"imgw":2,
"imgleft":-1,
"imgtop":-1
}

</json>
-->
    <text x="113" y = "138" fill = "black" font-size = "25px" font-family = "futura">q</text>
    <text x="163" y = "138" fill = "black" font-size = "25px" font-family = "futura">w</text>
    <text x="213" y = "138" fill = "black" font-size = "25px" font-family = "futura">e</text>
    <text x="263" y = "138" fill = "black" font-size = "25px" font-family = "futura">r</text>
    <text x="313" y = "138" fill = "black" font-size = "25px" font-family = "futura">t</text>
    <text x="363" y = "138" fill = "black" font-size = "25px" font-family = "futura">y</text>
    <text x="413" y = "138" fill = "black" font-size = "25px" font-family = "futura">u</text>
    <text x="463" y = "138" fill = "black" font-size = "25px" font-family = "futura">i</text>
    <text x="513" y = "138" fill = "black" font-size = "25px" font-family = "futura">o</text>
    <text x="563" y = "138" fill = "black" font-size = "25px" font-family = "futura">p</text>
    <text x="613" y = "138" fill = "black" font-size = "25px" font-family = "futura">[</text>
    <text x="663" y = "138" fill = "black" font-size = "25px" font-family = "futura">]</text>
    <text x="713" y = "138" fill = "black" font-size = "25px" font-family = "futura">\</text>
    <text x="138" y = "238" fill = "black" font-size = "25px" font-family = "futura">a</text>
    <text x="188" y = "238" fill = "black" font-size = "25px" font-family = "futura">s</text>
    <text x="238" y = "238" fill = "black" font-size = "25px" font-family = "futura">d</text>
    <text x="288" y = "238" fill = "black" font-size = "25px" font-family = "futura">f</text>
    <text x="338" y = "238" fill = "black" font-size = "25px" font-family = "futura">g</text>
    <line x1="150" y1="113" x2="150" y2="63" style="stroke:black;stroke-width:2" />
    <line x1="150" y1="63" x2="100" y2="62" style="stroke:black;stroke-width:2" />
    <line x1="100" y1="62" x2="100" y2="113" style="stroke:black;stroke-width:2" />
    <line x1="100" y1="113" x2="150" y2="113" style="stroke:black;stroke-width:2" />
    <line x1="100" y1="87" x2="113" y2="87" style="stroke:black;stroke-width:2" />
    <line x1="138" y1="100" x2="138" y2="75" style="stroke:black;stroke-width:2" />
    <line x1="138" y1="75" x2="113" y2="75" style="stroke:black;stroke-width:2" />
    <line x1="113" y1="75" x2="112" y2="100" style="stroke:black;stroke-width:2" />
    <line x1="112" y1="100" x2="138" y2="100" style="stroke:black;stroke-width:2" />
    <text x="119" y = "94" fill = "black" font-size = "12.5px" font-family = "futura">X</text>
    <line x1="138" y1="87" x2="150" y2="87" style="stroke:black;stroke-width:2" />
    <line x1="200" y1="113" x2="200" y2="63" style="stroke:black;stroke-width:2" />
    <line x1="200" y1="63" x2="150" y2="62" style="stroke:black;stroke-width:2" />
    <line x1="150" y1="62" x2="150" y2="112" style="stroke:black;stroke-width:2" />
    <line x1="150" y1="112" x2="200" y2="113" style="stroke:black;stroke-width:2" />
    <line x1="150" y1="88" x2="162" y2="88" style="stroke:black;stroke-width:2" />
    <line x1="187" y1="100" x2="187" y2="75" style="stroke:black;stroke-width:2" />
    <line x1="187" y1="75" x2="162" y2="75" style="stroke:black;stroke-width:2" />
    <line x1="162" y1="75" x2="162" y2="100" style="stroke:black;stroke-width:2" />
    <line x1="162" y1="100" x2="187" y2="100" style="stroke:black;stroke-width:2" />
    <text x="169" y = "94" fill = "black" font-size = "12.5px" font-family = "futura">Y</text>
    <line x1="187" y1="88" x2="200" y2="88" style="stroke:black;stroke-width:2" />
    <line x1="250" y1="112" x2="250" y2="62" style="stroke:black;stroke-width:2" />
    <line x1="250" y1="62" x2="200" y2="63" style="stroke:black;stroke-width:2" />
    <line x1="200" y1="63" x2="200" y2="113" style="stroke:black;stroke-width:2" />
    <line x1="200" y1="113" x2="250" y2="112" style="stroke:black;stroke-width:2" />
    <line x1="200" y1="88" x2="212" y2="88" style="stroke:black;stroke-width:2" />
    <line x1="238" y1="100" x2="237" y2="75" style="stroke:black;stroke-width:2" />
    <line x1="237" y1="75" x2="212" y2="75" style="stroke:black;stroke-width:2" />
    <line x1="212" y1="75" x2="213" y2="100" style="stroke:black;stroke-width:2" />
    <line x1="213" y1="100" x2="238" y2="100" style="stroke:black;stroke-width:2" />
    <text x="219" y = "94" fill = "black" font-size = "12.5px" font-family = "futura">Z</text>
    <line x1="237" y1="87" x2="250" y2="87" style="stroke:black;stroke-width:2" />
    <line x1="300" y1="112" x2="300" y2="62" style="stroke:black;stroke-width:2" />
    <line x1="300" y1="62" x2="250" y2="62" style="stroke:black;stroke-width:2" />
    <line x1="250" y1="62" x2="250" y2="112" style="stroke:black;stroke-width:2" />
    <line x1="250" y1="112" x2="300" y2="112" style="stroke:black;stroke-width:2" />
    <line x1="250" y1="88" x2="262" y2="87" style="stroke:black;stroke-width:2" />
    <line x1="288" y1="100" x2="287" y2="75" style="stroke:black;stroke-width:2" />
    <line x1="287" y1="75" x2="262" y2="75" style="stroke:black;stroke-width:2" />
    <line x1="262" y1="75" x2="263" y2="100" style="stroke:black;stroke-width:2" />
    <line x1="263" y1="100" x2="288" y2="100" style="stroke:black;stroke-width:2" />
    <text x="269" y = "94" fill = "black" font-size = "12.5px" font-family = "futura">H</text>
    <line x1="287" y1="87" x2="300" y2="87" style="stroke:black;stroke-width:2" />
    <line x1="350" y1="112" x2="350" y2="62" style="stroke:black;stroke-width:2" />
    <line x1="350" y1="62" x2="300" y2="62" style="stroke:black;stroke-width:2" />
    <line x1="300" y1="62" x2="300" y2="112" style="stroke:black;stroke-width:2" />
    <line x1="300" y1="112" x2="350" y2="112" style="stroke:black;stroke-width:2" />
    <line x1="300" y1="87" x2="312" y2="87" style="stroke:black;stroke-width:2" />
    <line x1="338" y1="100" x2="337" y2="75" style="stroke:black;stroke-width:2" />
    <line x1="337" y1="75" x2="312" y2="75" style="stroke:black;stroke-width:2" />
    <line x1="312" y1="75" x2="313" y2="100" style="stroke:black;stroke-width:2" />
    <line x1="313" y1="100" x2="338" y2="100" style="stroke:black;stroke-width:2" />
    <text x="319" y = "94" fill = "black" font-size = "12.5px" font-family = "futura">S</text>
    <line x1="337" y1="87" x2="350" y2="87" style="stroke:black;stroke-width:2" />
    <line x1="400" y1="112" x2="400" y2="62" style="stroke:black;stroke-width:2" />
    <line x1="400" y1="62" x2="350" y2="62" style="stroke:black;stroke-width:2" />
    <line x1="350" y1="62" x2="350" y2="112" style="stroke:black;stroke-width:2" />
    <line x1="350" y1="112" x2="400" y2="112" style="stroke:black;stroke-width:2" />
    <line x1="350" y1="87" x2="362" y2="87" style="stroke:black;stroke-width:2" />
    <line x1="388" y1="100" x2="387" y2="75" style="stroke:black;stroke-width:2" />
    <line x1="387" y1="75" x2="362" y2="75" style="stroke:black;stroke-width:2" />
    <line x1="362" y1="75" x2="362" y2="100" style="stroke:black;stroke-width:2" />
    <line x1="362" y1="100" x2="387" y2="100" style="stroke:black;stroke-width:2" />
    <text x="369" y = "94" fill = "black" font-size = "12.5px" font-family = "futura">T</text>
    <line x1="387" y1="87" x2="400" y2="87" style="stroke:black;stroke-width:2" />
    <line x1="450" y1="112" x2="450" y2="62" style="stroke:black;stroke-width:2" />
    <line x1="450" y1="62" x2="400" y2="62" style="stroke:black;stroke-width:2" />
    <line x1="400" y1="62" x2="400" y2="112" style="stroke:black;stroke-width:2" />
    <line x1="400" y1="112" x2="450" y2="112" style="stroke:black;stroke-width:2" />
    <line x1="412" y1="75" x2="437" y2="75" style="stroke:black;stroke-width:2" />
    <line x1="412" y1="100" x2="437" y2="100" style="stroke:black;stroke-width:2" />
    <circle cx="425" cy = "100" r = "3.125" stroke = "black" stroke-width = "2" fill = "none" />
    <line x1="425" y1="100" x2="425" y2="103" style="stroke:black;stroke-width:2" />
    <line x1="425" y1="100" x2="425" y2="75" style="stroke:black;stroke-width:2" />
    <circle cx="425" cy = "75" r = "3.125" stroke = "black" stroke-width = "2" fill = "black" />
    <line x1="500" y1="112" x2="500" y2="62" style="stroke:black;stroke-width:2" />
    <line x1="500" y1="62" x2="450" y2="62" style="stroke:black;stroke-width:2" />
    <line x1="450" y1="62" x2="450" y2="112" style="stroke:black;stroke-width:2" />
    <line x1="450" y1="112" x2="500" y2="112" style="stroke:black;stroke-width:2" />
    <line x1="463" y1="75" x2="488" y2="75" style="stroke:black;stroke-width:2" />
    <line x1="462" y1="100" x2="487" y2="100" style="stroke:black;stroke-width:2" />
    <line x1="475" y1="100" x2="475" y2="75" style="stroke:black;stroke-width:2" />
    <line x1="475" y1="100" x2="479" y2="96" style="stroke:black;stroke-width:2" />
    <line x1="475" y1="100" x2="479" y2="104" style="stroke:black;stroke-width:2" />
    <line x1="475" y1="100" x2="471" y2="104" style="stroke:black;stroke-width:2" />
    <line x1="475" y1="100" x2="471" y2="96" style="stroke:black;stroke-width:2" />
    <line x1="475" y1="75" x2="479" y2="71" style="stroke:black;stroke-width:2" />
    <line x1="475" y1="75" x2="479" y2="79" style="stroke:black;stroke-width:2" />
    <line x1="475" y1="75" x2="471" y2="79" style="stroke:black;stroke-width:2" />
    <line x1="475" y1="75" x2="471" y2="71" style="stroke:black;stroke-width:2" />
    <line x1="550" y1="112" x2="550" y2="62" style="stroke:black;stroke-width:2" />
    <line x1="550" y1="62" x2="500" y2="62" style="stroke:black;stroke-width:2" />
    <line x1="500" y1="62" x2="500" y2="112" style="stroke:black;stroke-width:2" />
    <line x1="500" y1="112" x2="550" y2="112" style="stroke:black;stroke-width:2" />
    <line x1="513" y1="75" x2="538" y2="75" style="stroke:black;stroke-width:2" />
    <circle cx="525" cy = "75" r = "3.125" stroke = "black" stroke-width = "2" fill = "black" />
    <line x1="513" y1="100" x2="519" y2="100" style="stroke:black;stroke-width:2" />
    <line x1="531" y1="106" x2="531" y2="94" style="stroke:black;stroke-width:2" />
    <line x1="531" y1="94" x2="519" y2="94" style="stroke:black;stroke-width:2" />
    <line x1="519" y1="94" x2="519" y2="106" style="stroke:black;stroke-width:2" />
    <line x1="519" y1="106" x2="531" y2="106" style="stroke:black;stroke-width:2" />
    <text x="522" y = "103" fill = "black" font-size = "6.25px" font-family = "futura">Z</text>
    <line x1="531" y1="100" x2="537" y2="100" style="stroke:black;stroke-width:2" />
    <line x1="525" y1="94" x2="525" y2="87" style="stroke:black;stroke-width:2" />
    <line x1="525" y1="87" x2="525" y2="81" style="stroke:black;stroke-width:2" />
    <line x1="525" y1="81" x2="525" y2="75" style="stroke:black;stroke-width:2" />
    <line x1="600" y1="112" x2="600" y2="62" style="stroke:black;stroke-width:2" />
    <line x1="600" y1="62" x2="550" y2="62" style="stroke:black;stroke-width:2" />
    <line x1="550" y1="62" x2="550" y2="112" style="stroke:black;stroke-width:2" />
    <line x1="550" y1="112" x2="600" y2="112" style="stroke:black;stroke-width:2" />
    <line x1="563" y1="75" x2="588" y2="75" style="stroke:black;stroke-width:2" />
    <circle cx="575" cy = "75" r = "3.125" stroke = "black" stroke-width = "2" fill = "black" />
    <line x1="562" y1="100" x2="569" y2="100" style="stroke:black;stroke-width:2" />
    <line x1="581" y1="106" x2="581" y2="94" style="stroke:black;stroke-width:2" />
    <line x1="581" y1="94" x2="569" y2="94" style="stroke:black;stroke-width:2" />
    <line x1="569" y1="94" x2="569" y2="106" style="stroke:black;stroke-width:2" />
    <line x1="569" y1="106" x2="581" y2="106" style="stroke:black;stroke-width:2" />
    <text x="572" y = "103" fill = "black" font-size = "6.25px" font-family = "futura">S</text>
    <line x1="581" y1="100" x2="587" y2="100" style="stroke:black;stroke-width:2" />
    <line x1="575" y1="94" x2="575" y2="87" style="stroke:black;stroke-width:2" />
    <line x1="575" y1="87" x2="575" y2="81" style="stroke:black;stroke-width:2" />
    <line x1="575" y1="81" x2="575" y2="75" style="stroke:black;stroke-width:2" />
    <line x1="650" y1="112" x2="650" y2="62" style="stroke:black;stroke-width:2" />
    <line x1="650" y1="62" x2="600" y2="62" style="stroke:black;stroke-width:2" />
    <line x1="600" y1="62" x2="600" y2="112" style="stroke:black;stroke-width:2" />
    <line x1="600" y1="112" x2="650" y2="112" style="stroke:black;stroke-width:2" />
    <line x1="613" y1="62" x2="638" y2="62" style="stroke:black;stroke-width:2" />
    <line x1="613" y1="87" x2="638" y2="87" style="stroke:black;stroke-width:2" />
    <line x1="612" y1="112" x2="637" y2="112" style="stroke:black;stroke-width:2" />
    <circle cx="625" cy = "112" r = "3.125" stroke = "black" stroke-width = "2" fill = "none" />
    <line x1="625" y1="116" x2="625" y2="112" style="stroke:black;stroke-width:2" />
    <line x1="625" y1="112" x2="625" y2="87" style="stroke:black;stroke-width:2" />
    <line x1="625" y1="87" x2="625" y2="62" style="stroke:black;stroke-width:2" />
    <circle cx="625" cy = "87" r = "3.125" stroke = "black" stroke-width = "2" fill = "black" />
    <circle cx="625" cy = "62" r = "3.125" stroke = "black" stroke-width = "2" fill = "black" />
    <line x1="700" y1="112" x2="700" y2="62" style="stroke:black;stroke-width:2" />
    <line x1="700" y1="62" x2="650" y2="62" style="stroke:black;stroke-width:2" />
    <line x1="650" y1="62" x2="650" y2="112" style="stroke:black;stroke-width:2" />
    <line x1="650" y1="112" x2="700" y2="112" style="stroke:black;stroke-width:2" />
    <line x1="663" y1="62" x2="688" y2="62" style="stroke:black;stroke-width:2" />
    <line x1="663" y1="87" x2="688" y2="87" style="stroke:black;stroke-width:2" />
    <line x1="662" y1="112" x2="687" y2="112" style="stroke:black;stroke-width:2" />
    <line x1="675" y1="112" x2="679" y2="108" style="stroke:black;stroke-width:2" />
    <line x1="675" y1="112" x2="679" y2="117" style="stroke:black;stroke-width:2" />
    <line x1="675" y1="112" x2="671" y2="117" style="stroke:black;stroke-width:2" />
    <line x1="675" y1="112" x2="671" y2="108" style="stroke:black;stroke-width:2" />
    <line x1="675" y1="112" x2="675" y2="87" style="stroke:black;stroke-width:2" />
    <line x1="675" y1="87" x2="679" y2="83" style="stroke:black;stroke-width:2" />
    <line x1="675" y1="87" x2="679" y2="92" style="stroke:black;stroke-width:2" />
    <line x1="675" y1="87" x2="671" y2="92" style="stroke:black;stroke-width:2" />
    <line x1="675" y1="87" x2="671" y2="83" style="stroke:black;stroke-width:2" />
    <line x1="675" y1="87" x2="675" y2="62" style="stroke:black;stroke-width:2" />
    <circle cx="675" cy = "62" r = "3.125" stroke = "black" stroke-width = "2" fill = "black" />
    <line x1="750" y1="112" x2="750" y2="62" style="stroke:black;stroke-width:2" />
    <line x1="750" y1="62" x2="700" y2="62" style="stroke:black;stroke-width:2" />
    <line x1="700" y1="62" x2="700" y2="112" style="stroke:black;stroke-width:2" />
    <line x1="700" y1="112" x2="750" y2="112" style="stroke:black;stroke-width:2" />
    <line x1="700" y1="87" x2="716" y2="87" style="stroke:black;stroke-width:2" />
    <line x1="716" y1="96" x2="716" y2="79" style="stroke:black;stroke-width:2" />
    <line x1="716" y1="79" x2="733" y2="79" style="stroke:black;stroke-width:2" />
    <line x1="733" y1="79" x2="741" y2="79" style="stroke:black;stroke-width:2" />
    <line x1="741" y1="79" x2="741" y2="87" style="stroke:black;stroke-width:2" />
    <line x1="741" y1="87" x2="741" y2="96" style="stroke:black;stroke-width:2" />
    <line x1="741" y1="96" x2="733" y2="96" style="stroke:black;stroke-width:2" />
    <line x1="733" y1="96" x2="725" y2="96" style="stroke:black;stroke-width:2" />
    <line x1="725" y1="96" x2="716" y2="96" style="stroke:black;stroke-width:2" />
  <path d="M717.8094292046475 89.43135621484001           A12.5 12.5 0 0 1 739.4600642992585 89.43135621484127" fill = "none" stroke = "black" stroke-width = "2" />
    <line x1="729" y1="96" x2="737" y2="82" style="stroke:black;stroke-width:2" />
    <line x1="737" y1="82" x2="735" y2="83" style="stroke:black;stroke-width:2" />
    <line x1="737" y1="82" x2="737" y2="84" style="stroke:black;stroke-width:2" />
    <line x1="175" y1="212" x2="175" y2="162" style="stroke:black;stroke-width:2" />
    <line x1="175" y1="162" x2="125" y2="162" style="stroke:black;stroke-width:2" />
    <line x1="125" y1="162" x2="125" y2="212" style="stroke:black;stroke-width:2" />
    <line x1="125" y1="212" x2="175" y2="212" style="stroke:black;stroke-width:2" />
    <text x="134" y = "200" fill = "black" font-size = "25px" font-family = "futura">0</text>
	<path d = "M134 206 L134 181 L134 169 L131 169 L131 181 L131 194 L131 206 L134 206 Z" stroke = "black" stroke-width = "2" fill = "black" />	<path d = "M159 206 L165 197 L170 187 L165 178 L159 169 L157 169 L167 187 L157 206 L159 206 Z" stroke = "black" stroke-width = "2" fill = "black" />    <line x1="225" y1="212" x2="225" y2="162" style="stroke:black;stroke-width:2" />
    <line x1="225" y1="162" x2="175" y2="162" style="stroke:black;stroke-width:2" />
    <line x1="175" y1="162" x2="175" y2="212" style="stroke:black;stroke-width:2" />
    <line x1="175" y1="212" x2="225" y2="212" style="stroke:black;stroke-width:2" />
    <text x="184" y = "200" fill = "black" font-size = "25px" font-family = "futura">1</text>
	<path d = "M184 206 L184 181 L184 169 L181 169 L181 181 L181 194 L181 206 L184 206 Z" stroke = "black" stroke-width = "2" fill = "black" />	<path d = "M209 206 L215 197 L220 187 L215 178 L209 169 L207 169 L217 187 L207 206 L209 206 Z" stroke = "black" stroke-width = "2" fill = "black" />    <line x1="275" y1="212" x2="275" y2="162" style="stroke:black;stroke-width:2" />
    <line x1="275" y1="162" x2="225" y2="162" style="stroke:black;stroke-width:2" />
    <line x1="225" y1="162" x2="225" y2="212" style="stroke:black;stroke-width:2" />
    <line x1="225" y1="212" x2="275" y2="212" style="stroke:black;stroke-width:2" />
    <line x1="225" y1="187" x2="275" y2="187" style="stroke:black;stroke-width:2" />
    <line x1="325" y1="212" x2="325" y2="162" style="stroke:black;stroke-width:2" />
    <line x1="325" y1="162" x2="275" y2="162" style="stroke:black;stroke-width:2" />
    <line x1="275" y1="162" x2="275" y2="212" style="stroke:black;stroke-width:2" />
    <line x1="275" y1="212" x2="325" y2="212" style="stroke:black;stroke-width:2" />
    <line x1="275" y1="186" x2="325" y2="186" style="stroke:black;stroke-width:2" />
    <line x1="275" y1="189" x2="325" y2="189" style="stroke:black;stroke-width:2" />
    <line x1="375" y1="212" x2="375" y2="162" style="stroke:black;stroke-width:2" />
    <line x1="375" y1="162" x2="325" y2="162" style="stroke:black;stroke-width:2" />
    <line x1="325" y1="162" x2="325" y2="212" style="stroke:black;stroke-width:2" />
    <line x1="325" y1="212" x2="375" y2="212" style="stroke:black;stroke-width:2" />
    <line x1="325" y1="187" x2="375" y2="187" style="stroke:black;stroke-width:2" />
    <line x1="350" y1="187" x2="353" y2="182" style="stroke:black;stroke-width:2" />
    <line x1="350" y1="187" x2="347" y2="193" style="stroke:black;stroke-width:2" />
    <text x="344" y = "181" fill = "black" font-size = "12.5px" font-family = "futura">n</text>
</svg>