<svg width="300" height="550" viewbox = "0 0 300 550"  xmlns="http://www.w3.org/2000/svg">

<!--
<json>
{
"shapes":[
    "050:0250,",
    "051:0251,",
    "0220:0336,0336,0335,0201,0334,0331,0333,0333,0337,0200,0336,0332,0336,0330,0332,0337,",
    "0221:0365,0333,0336,0330,0333,0337,0335,0201,0334,0337,0337,",
    "0222:0220,0130,0221,",
    "0223:0220,0131,0221,",
    "0224:0220,0132,0221,",
    "0225:0220,0110,0221,",
    "0226:0220,0123,0221,",
    "0227:0220,0124,0221,0304,",
    "0230:0335,0342,0333,0342,0334,0336,0333,0336,0336,0341,0335,0335,0342,0335,0335,0337,0337,0337,0201,0336,0336,0336,0347,0337,0337,0333,0337,",
    "0231:0335,0342,0333,0342,0336,0330,0334,0337,0342,0336,0336,0350,0335,0342,0335,0335,0342,0335,0335,0342,0335,0335,0342,0335,0337,0337,0330,0336,0336,0335,0342,0335,0335,0342,0335,0335,0342,0335,0335,0342,0335,0304,0337,0333,0337,",
    "0232:0335,0342,0336,0330,0334,0336,0336,0347,0337,0337,0337,0331,0336,0332,0337,0224,0336,0336,0330,0332,0332,0337,0336,0201,0201,0201,0333,0333,0337,0337,",
    "0233:0335,0342,0336,0330,0334,0336,0336,0347,0337,0337,0337,0331,0336,0332,0337,0226,0336,0336,0330,0332,0332,0337,0336,0201,0201,0201,0333,0333,0337,0337,",
    "0234:0335,0342,0333,0342,0333,0342,0334,0336,0333,0336,0336,0341,0331,0201,0337,0337,0337,0201,0342,0336,0336,0336,0347,0337,0337,0337,0330,0336,0336,0336,0347,0337,0337,0333,0337,",
    "0235:0335,0342,0333,0342,0333,0342,0334,0336,0333,0336,0350,0335,0342,0335,0335,0342,0335,0335,0342,0335,0335,0342,0335,0337,0337,0201,0336,0336,0335,0342,0335,0335,0342,0335,0335,0342,0335,0335,0342,0335,0337,0337,0304,0201,0336,0336,0336,0347,0337,0337,0333,0337,",
    "0236:0335,0201,0334,0336,0331,0337,0201,0335,0201,0336,0201,0335,0201,0201,0335,0201,0201,0201,0335,0333,0336,0333,0337,0337,0210,0210,0306,0343,0211,0211,0350,0335,0342,0330,0335,0335,0335,0335,0335,0335,0336,0336,0336,0335,0342,0334,0334,0342,0335,0337,0337,0337,0330,0334,0304,0335,0335,0336,0330,0332,0336,0332,0337,0332,0332,0337,",
    "0237:0335,0201,0334,",
    "0240:0335,0336,0336,0336,0336,0336,0332,0337,0337,0337,0337,0337,0342,0336,0336,0336,0336,0333,0337,0337,0337,0337,0342,0336,0336,0336,0336,0336,0332,0337,0337,0337,0337,0337,0330,0334,",
    "0241:0335,0342,0336,0330,0334,0306,0350,0335,0336,0336,0342,0335,0335,0335,0335,0335,0335,0342,0335,0335,0335,0335,0335,0304,0330,0332,0337,0156,0365,0333,0333,0336,0331,0333,0337,0337,0337,",
    "0242:0336,0336,0336,0336,0332,0337,0330,0333,0337,0337,061,0365,0336,0336,0331,0337,0337,0362,0203,0336,0203,0334,0336,0336,0203,0334,0337,0337,0203,0203,0203,0334,0336,0336,0203,0363,0334,0337,0337,0333,0333,0312,0337,0313,0336,0306,0350,0335,0362,0203,0203,0334,0334,0203,0203,0334,0334,0336,0336,0203,0334,0334,0334,0334,0337,0337,0337,0203,0335,0335,0203,0334,0334,0334,0334,0336,0336,0336,0203,0363,0304,0334,0337,0337,0337,0312,0336,0313,0332,0332,0336,0336,0332,0337,0337,0337,0337,",
    "0243:0336,0336,0336,0336,0332,0337,0330,0333,0337,0337,060,0365,0336,0336,0331,0337,0337,0362,0203,0336,0203,0334,0336,0336,0203,0334,0337,0337,0203,0203,0203,0334,0336,0336,0203,0363,0334,0337,0337,0333,0333,0312,0337,0313,0336,0306,0350,0335,0362,0203,0203,0334,0334,0203,0203,0334,0334,0336,0336,0203,0334,0334,0334,0334,0337,0337,0337,0203,0335,0335,0203,0334,0334,0334,0334,0336,0336,0336,0203,0363,0304,0334,0337,0337,0337,0312,0336,0313,0332,0332,0336,0336,0332,0337,0337,0337,0337,",
    "0250:0336,0336,0330,0333,0337,",
    "0251:0365,0333,0336,0331,0333,0337,0337,",
    "0252:0332,0332,0332,0332,0332,0336,0330,0330,0330,0250,0161,0251,0250,0167,0251,0250,0145,0251,0250,0162,0251,0250,0164,0251,0250,0171,0251,0250,0165,0251,0250,0151,0251,0250,0157,0251,0250,0160,0251,0250,0133,0251,0250,0135,0251,0250,0134,0251,0331,0331,0332,0332,0332,0332,0332,0332,0332,0332,0332,0332,0332,0332,0336,0332,0337,0250,0141,0251,0250,0163,0251,0250,0144,0251,0250,0146,0251,0250,0147,0251,",
    "0260:0262,0330,0330,0330,0330,0330,0330,0330,0330,0330,0332,01032,01033,01030,0331,0331,0332,0332,0332,0332,01334,01330,01335,01031,0331,0331,0332,0332,0332,0332,01332,01300,01333,0331,0331,0332,0332,0332,01336,01331,01337,0331,0331,0332,0332,0332,01037,01036,",
    "0262:0330,0336,0330,0250,057,0251,0250,052,0251,0250,055,0251,0331,0331,0332,0332,0332,0332,0250,067,0251,0250,070,0251,0250,071,0251,0250,053,0251,0331,0331,0332,0332,0332,0332,0250,064,0251,0250,065,0251,0250,066,0251,0331,0331,0332,0332,0332,0250,061,0251,0250,062,0251,0250,063,0251,0331,0331,0332,0332,0332,0250,060,0251,0250,056,0251,",
    "01220:0333,0200,0336,0336,0330,0332,0337,0200,0330,0336,0330,0332,0332,0334,0366,0335,0335,0333,0333,0331,0367,0366,0330,0335,0335,0332,0332,0367,0335,0333,0333,0333,0337,0337,",
    "01221:0333,0200,0336,0336,0330,0332,0337,0200,0336,0331,0335,0366,0330,0332,0332,0335,0335,0367,0366,0333,0333,0335,0335,0331,0367,0334,0333,0331,0331,0331,0331,0337,0337,",
    "01222:0333,0200,0336,0330,0332,0332,0337,0222,0336,0331,0337,",
    "01223:0333,0200,0336,0330,0332,0332,0337,0223,0336,0331,0337,",
    "01224:0333,0200,0336,0330,0332,0332,0337,0224,0336,0331,0337,",
    "01225:0333,0200,0336,0330,0332,0332,0337,0225,0336,0331,0337,",
    "01226:0333,0200,0336,0330,0332,0332,0337,0226,0336,0331,0337,",
    "01227:0333,0200,0336,0330,0332,0332,0337,0227,0336,0331,0337,",
    "01230:0333,0200,0330,0332,0336,0333,0331,0336,0330,0332,0337,0230,0336,0333,0331,0330,0330,0337,0337,0331,",
    "01231:0333,0200,0330,0332,0336,0336,0333,0331,0337,0231,0336,0333,0330,0337,0337,0331,",
    "01232:0333,0200,0330,0332,0336,0336,0333,0331,0337,0232,0336,0333,0330,0337,0337,0331,",
    "01233:0333,0200,0330,0332,0336,0336,0333,0331,0337,0233,0336,0330,0333,0337,0337,0331,",
    "01234:0333,0200,0336,0330,0330,0332,0332,0336,0333,0337,0234,0336,0333,0337,0337,0331,",
    "01235:0333,0200,0336,0330,0330,0332,0336,0332,0337,0235,0336,0333,0337,0337,0331,",
    "01236:0333,0200,0336,0330,0332,0332,0332,0336,0333,0337,0336,0333,0211,0211,0236,0210,0210,0337,0331,0337,0333,",
    "01237:0333,0200,0336,0330,0332,0332,0337,0237,0336,0331,0337,",
    "01240:0333,0200,0336,0330,0332,0332,0337,0240,0336,0331,0337,",
    "01241:0333,0200,0336,0330,0332,0332,0337,0241,0336,0331,0337,",
    "01242:0333,0200,0332,0336,0336,0336,0330,0333,0337,0337,0337,0242,0333,0336,0336,0336,0332,0331,0337,0337,0337,",
    "01243:0333,0200,0332,0336,0336,0336,0330,0333,0337,0337,0337,0243,0333,0336,0336,0336,0332,0331,0337,0337,0337,",
    "01250:0333,0200,0336,0332,0334,0366,0333,0335,0335,0331,0367,0366,0330,0335,0335,0333,0367,0335,0331,0331,0333,0337,",
    "01251:0333,0200,0336,0332,0335,0366,0332,0335,0335,0331,0367,0366,0333,0335,0335,0331,0367,0334,0333,0331,0331,0337,"
],
"glyph":"0262,0330,0330,0330,0330,0330,0330,0330,0330,0330,0332,01032,01033,01030,0331,0331,0332,0332,0332,0332,01334,01330,01335,01031,0331,0331,0332,0332,0332,0332,01332,01300,01333,0331,0331,0332,0332,0332,01336,01331,01337,0331,0331,0332,0332,0332,01037,01036,",
"w":300,
"h":550,
"x0":100,
"y0":275,
"x0rel":-5.83,
"y0rel":-0.61,
"unit":100,
"imgurl":"",
"imgw":2,
"imgleft":-1,
"imgtop":-1
}

</json>
-->
    <text x="113" y = "113" fill = "black" font-size = "25px" font-family = "futura">/</text>
    <text x="163" y = "113" fill = "black" font-size = "25px" font-family = "futura">*</text>
    <text x="213" y = "113" fill = "black" font-size = "25px" font-family = "futura">-</text>
    <text x="63" y = "213" fill = "black" font-size = "25px" font-family = "futura">7</text>
    <text x="113" y = "213" fill = "black" font-size = "25px" font-family = "futura">8</text>
    <text x="163" y = "213" fill = "black" font-size = "25px" font-family = "futura">9</text>
    <text x="213" y = "213" fill = "black" font-size = "25px" font-family = "futura">+</text>
    <text x="63" y = "313" fill = "black" font-size = "25px" font-family = "futura">4</text>
    <text x="113" y = "313" fill = "black" font-size = "25px" font-family = "futura">5</text>
    <text x="163" y = "313" fill = "black" font-size = "25px" font-family = "futura">6</text>
    <text x="63" y = "413" fill = "black" font-size = "25px" font-family = "futura">1</text>
    <text x="113" y = "413" fill = "black" font-size = "25px" font-family = "futura">2</text>
    <text x="163" y = "413" fill = "black" font-size = "25px" font-family = "futura">3</text>
    <text x="63" y = "513" fill = "black" font-size = "25px" font-family = "futura">0</text>
    <text x="113" y = "513" fill = "black" font-size = "25px" font-family = "futura">.</text>
    <line x1="150" y1="75" x2="150" y2="25" style="stroke:black;stroke-width:2" />
    <line x1="150" y1="25" x2="100" y2="25" style="stroke:black;stroke-width:2" />
    <line x1="100" y1="25" x2="100" y2="75" style="stroke:black;stroke-width:2" />
    <line x1="100" y1="75" x2="150" y2="75" style="stroke:black;stroke-width:2" />
	<path d = "M125 50 L125 63 L113 50 L125 38 L125 50 " stroke = "black" stroke-width = "2" fill = "none" />    <line x1="200" y1="75" x2="200" y2="25" style="stroke:black;stroke-width:2" />
    <line x1="200" y1="25" x2="150" y2="25" style="stroke:black;stroke-width:2" />
    <line x1="150" y1="25" x2="150" y2="75" style="stroke:black;stroke-width:2" />
    <line x1="150" y1="75" x2="200" y2="75" style="stroke:black;stroke-width:2" />
	<path d = "M175 50 L175 38 L188 50 L175 63 L175 50 " stroke = "black" stroke-width = "2" fill = "none" />    <line x1="250" y1="75" x2="250" y2="25" style="stroke:black;stroke-width:2" />
    <line x1="250" y1="25" x2="200" y2="25" style="stroke:black;stroke-width:2" />
    <line x1="200" y1="25" x2="200" y2="75" style="stroke:black;stroke-width:2" />
    <line x1="200" y1="75" x2="250" y2="75" style="stroke:black;stroke-width:2" />
	<path d = "M225 50 L213 50 L225 38 L238 50 L225 50 " stroke = "black" stroke-width = "2" fill = "none" />    <line x1="100" y1="175" x2="100" y2="125" style="stroke:black;stroke-width:2" />
    <line x1="100" y1="125" x2="50" y2="125" style="stroke:black;stroke-width:2" />
    <line x1="50" y1="125" x2="50" y2="175" style="stroke:black;stroke-width:2" />
    <line x1="50" y1="175" x2="100" y2="175" style="stroke:black;stroke-width:2" />
  <path d="M66.16116523516818 141.16116523516826           A12.5 12.5 0 0 1 83.83883476483186 141.16116523516828" fill = "none" stroke = "black" stroke-width = "2" />
  <path d="M66.16116523516817 158.83883476483197           A12.5 12.5 0 0 1 66.16116523516818 141.16116523516826" fill = "none" stroke = "black" stroke-width = "2" />
  <path d="M83.83883476483187 158.83883476483194           A12.5 12.5 0 0 1 66.16116523516817 158.83883476483197" fill = "none" stroke = "black" stroke-width = "2" />
    <line x1="75" y1="150" x2="84" y2="159" style="stroke:black;stroke-width:2" />
    <line x1="75" y1="169" x2="84" y2="160" style="stroke:black;stroke-width:2" />
    <line x1="150" y1="175" x2="150" y2="125" style="stroke:black;stroke-width:2" />
    <line x1="150" y1="125" x2="100" y2="125" style="stroke:black;stroke-width:2" />
    <line x1="100" y1="125" x2="100" y2="175" style="stroke:black;stroke-width:2" />
    <line x1="100" y1="175" x2="150" y2="175" style="stroke:black;stroke-width:2" />
    <line x1="131" y1="162" x2="131" y2="150" style="stroke:black;stroke-width:2" />
    <line x1="131" y1="162" x2="119" y2="162" style="stroke:black;stroke-width:2" />
    <line x1="119" y1="162" x2="119" y2="150" style="stroke:black;stroke-width:2" />
    <line x1="119" y1="150" x2="112" y2="150" style="stroke:black;stroke-width:2" />
    <line x1="112" y1="150" x2="125" y2="137" style="stroke:black;stroke-width:2" />
    <line x1="125" y1="137" x2="137" y2="150" style="stroke:black;stroke-width:2" />
    <line x1="137" y1="150" x2="131" y2="150" style="stroke:black;stroke-width:2" />
    <line x1="200" y1="175" x2="200" y2="125" style="stroke:black;stroke-width:2" />
    <line x1="200" y1="125" x2="150" y2="125" style="stroke:black;stroke-width:2" />
    <line x1="150" y1="125" x2="150" y2="175" style="stroke:black;stroke-width:2" />
    <line x1="150" y1="175" x2="200" y2="175" style="stroke:black;stroke-width:2" />
  <path d="M166.1611652351679 141.161165235168           A12.5 12.5 0 0 1 183.8388347648316 141.16116523516786" fill = "none" stroke = "black" stroke-width = "2" />
  <path d="M166.16116523516808 158.83883476483172           A12.5 12.5 0 0 1 166.1611652351679 141.161165235168" fill = "none" stroke = "black" stroke-width = "2" />
  <path d="M183.83883476483177 158.83883476483152           A12.5 12.5 0 0 1 166.16116523516808 158.83883476483172" fill = "none" stroke = "black" stroke-width = "2" />
    <line x1="175" y1="150" x2="184" y2="141" style="stroke:black;stroke-width:2" />
    <line x1="175" y1="131" x2="184" y2="140" style="stroke:black;stroke-width:2" />
    <line x1="250" y1="175" x2="250" y2="125" style="stroke:black;stroke-width:2" />
    <line x1="250" y1="125" x2="200" y2="125" style="stroke:black;stroke-width:2" />
    <line x1="200" y1="125" x2="200" y2="175" style="stroke:black;stroke-width:2" />
    <line x1="200" y1="175" x2="250" y2="175" style="stroke:black;stroke-width:2" />
	<path d = "M225 150 L237 150 L225 162 L212 150 L225 150 " stroke = "black" stroke-width = "2" fill = "none" />    <line x1="100" y1="275" x2="100" y2="225" style="stroke:black;stroke-width:2" />
    <line x1="100" y1="225" x2="50" y2="225" style="stroke:black;stroke-width:2" />
    <line x1="50" y1="225" x2="50" y2="275" style="stroke:black;stroke-width:2" />
    <line x1="50" y1="275" x2="100" y2="275" style="stroke:black;stroke-width:2" />
    <line x1="88" y1="244" x2="75" y2="244" style="stroke:black;stroke-width:2" />
    <line x1="88" y1="244" x2="88" y2="256" style="stroke:black;stroke-width:2" />
    <line x1="88" y1="256" x2="75" y2="256" style="stroke:black;stroke-width:2" />
    <line x1="75" y1="256" x2="75" y2="263" style="stroke:black;stroke-width:2" />
    <line x1="75" y1="263" x2="63" y2="250" style="stroke:black;stroke-width:2" />
    <line x1="63" y1="250" x2="75" y2="238" style="stroke:black;stroke-width:2" />
    <line x1="75" y1="238" x2="75" y2="244" style="stroke:black;stroke-width:2" />
    <line x1="150" y1="275" x2="150" y2="225" style="stroke:black;stroke-width:2" />
    <line x1="150" y1="225" x2="100" y2="225" style="stroke:black;stroke-width:2" />
    <line x1="100" y1="225" x2="100" y2="275" style="stroke:black;stroke-width:2" />
    <line x1="100" y1="275" x2="150" y2="275" style="stroke:black;stroke-width:2" />
<circle cx="125" cy = "250" r = "3" stroke = "black" stroke-width = "2" fill = "black" />
    <line x1="134" y1="241" x2="143" y2="232" style="stroke:black;stroke-width:2" />
    <line x1="107" y1="268" x2="116" y2="259" style="stroke:black;stroke-width:2" />
    <line x1="107" y1="232" x2="116" y2="241" style="stroke:black;stroke-width:2" />
    <line x1="134" y1="259" x2="143" y2="268" style="stroke:black;stroke-width:2" />
    <line x1="200" y1="275" x2="200" y2="225" style="stroke:black;stroke-width:2" />
    <line x1="200" y1="225" x2="150" y2="225" style="stroke:black;stroke-width:2" />
    <line x1="150" y1="225" x2="150" y2="275" style="stroke:black;stroke-width:2" />
    <line x1="150" y1="275" x2="200" y2="275" style="stroke:black;stroke-width:2" />
    <line x1="163" y1="256" x2="175" y2="256" style="stroke:black;stroke-width:2" />
    <line x1="163" y1="256" x2="162" y2="244" style="stroke:black;stroke-width:2" />
    <line x1="162" y1="244" x2="175" y2="244" style="stroke:black;stroke-width:2" />
    <line x1="175" y1="244" x2="175" y2="237" style="stroke:black;stroke-width:2" />
    <line x1="175" y1="237" x2="188" y2="250" style="stroke:black;stroke-width:2" />
    <line x1="188" y1="250" x2="175" y2="262" style="stroke:black;stroke-width:2" />
    <line x1="175" y1="262" x2="175" y2="256" style="stroke:black;stroke-width:2" />
    <line x1="100" y1="375" x2="100" y2="325" style="stroke:black;stroke-width:2" />
    <line x1="100" y1="325" x2="50" y2="325" style="stroke:black;stroke-width:2" />
    <line x1="50" y1="325" x2="50" y2="375" style="stroke:black;stroke-width:2" />
    <line x1="50" y1="375" x2="100" y2="375" style="stroke:black;stroke-width:2" />
    <line x1="88" y1="350" x2="63" y2="350" style="stroke:black;stroke-width:2" />
    <line x1="150" y1="375" x2="150" y2="325" style="stroke:black;stroke-width:2" />
    <line x1="150" y1="325" x2="100" y2="325" style="stroke:black;stroke-width:2" />
    <line x1="100" y1="325" x2="100" y2="375" style="stroke:black;stroke-width:2" />
    <line x1="100" y1="375" x2="150" y2="375" style="stroke:black;stroke-width:2" />
    <line x1="119" y1="338" x2="119" y2="350" style="stroke:black;stroke-width:2" />
    <line x1="119" y1="338" x2="131" y2="337" style="stroke:black;stroke-width:2" />
    <line x1="131" y1="337" x2="131" y2="350" style="stroke:black;stroke-width:2" />
    <line x1="131" y1="350" x2="138" y2="350" style="stroke:black;stroke-width:2" />
    <line x1="138" y1="350" x2="125" y2="363" style="stroke:black;stroke-width:2" />
    <line x1="125" y1="363" x2="113" y2="350" style="stroke:black;stroke-width:2" />
    <line x1="113" y1="350" x2="119" y2="350" style="stroke:black;stroke-width:2" />
    <line x1="200" y1="375" x2="200" y2="325" style="stroke:black;stroke-width:2" />
    <line x1="200" y1="325" x2="150" y2="325" style="stroke:black;stroke-width:2" />
    <line x1="150" y1="325" x2="150" y2="375" style="stroke:black;stroke-width:2" />
    <line x1="150" y1="375" x2="200" y2="375" style="stroke:black;stroke-width:2" />
    <line x1="175" y1="350" x2="175" y2="337" style="stroke:black;stroke-width:2" />
    <line x1="175" y1="350" x2="163" y2="350" style="stroke:black;stroke-width:2" />
    <line x1="175" y1="350" x2="175" y2="362" style="stroke:black;stroke-width:2" />
    <line x1="175" y1="350" x2="188" y2="350" style="stroke:black;stroke-width:2" />
    <line x1="100" y1="475" x2="100" y2="425" style="stroke:black;stroke-width:2" />
    <line x1="100" y1="425" x2="50" y2="425" style="stroke:black;stroke-width:2" />
    <line x1="50" y1="425" x2="50" y2="475" style="stroke:black;stroke-width:2" />
    <line x1="50" y1="475" x2="100" y2="475" style="stroke:black;stroke-width:2" />
	<path d = "M63 450 L63 463 L50 450 L63 438 L63 450 " stroke = "black" stroke-width = "2" fill = "none" />	<path d = "M100 450 L88 463 L88 450 L88 438 L100 450 " stroke = "black" stroke-width = "2" fill = "none" />    <line x1="150" y1="475" x2="150" y2="425" style="stroke:black;stroke-width:2" />
    <line x1="150" y1="425" x2="100" y2="425" style="stroke:black;stroke-width:2" />
    <line x1="100" y1="425" x2="100" y2="475" style="stroke:black;stroke-width:2" />
    <line x1="100" y1="475" x2="150" y2="475" style="stroke:black;stroke-width:2" />
	<path d = "M113 450 L113 438 L125 450 L113 463 L113 450 " stroke = "black" stroke-width = "2" fill = "none" />	<path d = "M125 450 L138 438 L138 450 L138 463 L125 450 " stroke = "black" stroke-width = "2" fill = "none" /></svg>