<svg width="300" height="250" viewbox = "0 0 300 250"  xmlns="http://www.w3.org/2000/svg">

<!--
<json>
{
"shapes":[
    "0220:0362,0203,0335,0336,0336,0336,0203,0335,0337,0337,0337,0203,0335,0336,0336,0336,0203,0363,0335,0337,0337,0337,",
    "0221:0333,0306,0350,0335,0336,0312,0336,0313,0337,0362,0203,0334,0334,0203,0335,0335,0335,0335,0336,0336,0203,0335,0335,0337,0337,0203,0335,0335,0203,0335,0335,0336,0336,0203,0363,0304,0335,0312,0337,0313,0337,0337,",
    "0222:0220,0221,",
    "0223:0332,0210,0210,0210,0336,0336,0336,0330,0333,0333,0330,0337,0337,0337,0222,",
    "0224:0223,0223,0223,0223,0223,0223,0223,0223,0223,0223,0337,0337,0337,0337,0337,0331,0333,0336,0336,0336,0336,0336,0330,0330,0330,0332,0332,0332,0332,0330,0332,0333,0337,0337,0337,0337,0337,0211,0211,0211,0211,",
    "0225:0322,0223,0323,0223,0324,0223,0325,0223,0326,0223,0327,0223,0322,0223,0323,0223,0324,0223,0325,0223,0337,0337,0337,0337,0337,0331,0333,0336,0336,0336,0336,0336,0330,0330,0330,0332,0332,0332,0332,0330,0332,0333,0337,0337,0337,0337,0337,0211,0211,0211,0211,",
    "0226:0224,0333,0333,0225,0600,0330,0332,0336,0336,0336,0332,0332,0332,0331,0332,0332,0332,0332,0337,0337,0337,0337,0370,0332,0601,0336,0336,0336,0333,0337,0337,0337,0371,0336,0336,0330,0330,",
    "0260:0336,0336,0336,0336,0331,0331,0337,0337,0337,0337,0224,",
    "0600:044,053,040,0134,0146,0162,0141,0143,0173,061,0175,0173,0134,0163,0161,0162,0164,0173,062,0175,0175,044,040,",
    "0601:044,0134,0146,0162,0141,0143,0173,061,0175,0173,0134,0163,0161,0162,0164,0173,062,0175,0175,044,040,040,"
],
"glyph":"0336,0336,0336,0336,0331,0331,0337,0337,0337,0337,0224,",
"w":300,
"h":250,
"x0":250,
"y0":225,
"x0rel":-1.6424144129698035,
"y0rel":-0.4279530512667798,
"unit":259.37424601000026,
"imgurl":"",
"imgw":2,
"imgleft":-1,
"imgtop":-1
}

</json>
-->
	<path d = "M34 214 L34 41 L56 41 L56 214 L34 214 Z" stroke = "black" stroke-width = "2" fill = "black" />	<path d = "M207 214 L257 128 L207 41 L232 41 L282 128 L232 214 L207 214 Z" stroke = "black" stroke-width = "2" fill = "black" />	<path d = "M63 185 L63 70 L77 70 L77 185 L63 185 Z" stroke = "black" stroke-width = "2" fill = "black" />	<path d = "M178 185 L212 127 L178 70 L195 70 L229 127 L195 185 L178 185 Z" stroke = "black" stroke-width = "2" fill = "black" />	<path d = "M82 166 L82 89 L92 89 L92 166 L82 166 Z" stroke = "black" stroke-width = "2" fill = "black" />	<path d = "M159 166 L182 127 L159 89 L170 89 L193 127 L170 166 L159 166 Z" stroke = "black" stroke-width = "2" fill = "black" />	<path d = "M95 153 L95 101 L101 101 L101 153 L95 153 Z" stroke = "black" stroke-width = "2" fill = "black" />	<path d = "M147 153 L161 127 L147 101 L154 101 L169 127 L154 153 L147 153 Z" stroke = "black" stroke-width = "2" fill = "black" />	<path d = "M104 144 L104 110 L108 110 L108 144 L104 144 Z" stroke = "black" stroke-width = "2" fill = "black" />	<path d = "M138 144 L148 127 L138 110 L143 110 L153 127 L143 144 L138 144 Z" stroke = "black" stroke-width = "2" fill = "black" />	<path d = "M109 139 L109 116 L112 116 L112 139 L109 139 Z" stroke = "black" stroke-width = "2" fill = "black" />	<path d = "M132 139 L139 127 L132 116 L136 116 L142 127 L136 139 L132 139 Z" stroke = "black" stroke-width = "2" fill = "black" />	<path d = "M113 135 L113 119 L115 119 L115 135 L113 135 Z" stroke = "black" stroke-width = "2" fill = "black" />	<path d = "M129 135 L133 127 L129 119 L131 119 L135 127 L131 135 L129 135 Z" stroke = "black" stroke-width = "2" fill = "black" />	<path d = "M116 132 L116 122 L117 122 L117 132 L116 132 Z" stroke = "black" stroke-width = "2" fill = "black" />	<path d = "M126 132 L129 127 L126 122 L127 122 L130 127 L127 132 L126 132 Z" stroke = "black" stroke-width = "2" fill = "black" />	<path d = "M117 131 L117 124 L118 124 L118 131 L117 131 Z" stroke = "black" stroke-width = "2" fill = "black" />	<path d = "M124 131 L126 127 L124 124 L125 124 L127 127 L125 131 L124 131 Z" stroke = "black" stroke-width = "2" fill = "black" />	<path d = "M119 129 L119 125 L119 125 L119 129 L119 129 Z" stroke = "black" stroke-width = "2" fill = "black" />	<path d = "M123 129 L125 127 L123 125 L124 125 L125 127 L124 129 L123 129 Z" stroke = "black" stroke-width = "2" fill = "black" /></svg>